<svg xmlns="http://www.w3.org/2000/svg" xmlns:xlink="http://www.w3.org/1999/xlink" width="1024" height="992" preserveAspectRatio="xMidYMid meet" viewBox="0 0 1024 992" style="-ms-transform: rotate(360deg); -webkit-transform: rotate(360deg); transform: rotate(360deg);"><path d="M998 986H790q-11 0-19-7.5t-8-18.5V625q0-33-6.5-56t-15-34t-21.5-17.5t-19.5-7t-16.5-.5q-24 0-43 12t-26.5 23.5T602 569q-2 6-3.5 16.5T597 610v350q0 11-8 19t-19 8H362q-5 0-10-2t-9-6q-8-8-7-19v-92l.5-93l.5-108V456l-.5-78l-.5-43q-1-11 7-19.5t19-8.5h208q6 0 11 2t8.5 5.5t5.5 8.5t2 11v15q64-57 161-57q125 0 195.5 82t70.5 227v359q0 5-2 10t-5.5 8.5t-8.5 5.5t-10 2zm-182-53h155V601q0-122-55.5-188.5T758 346q-104 0-162 86q-5 19-25 19h-2q-15 0-23-14q-6-10-2-21v-56H389q2 111 0 573h155V610q0-39 9-61q7-17 17-31.5t22.5-26t27-19t31-12T684 456q42 0 71.5 20t45 57.5T816 625v308zm-569 53H39q-11 0-19-7.5T12 960V334q0-11 8-19t19-8h208q11 0 19 8t8 19v626q0 7-3.5 13t-10 9.5T247 986zM66 933h155V360H66v573zm77-658h-1q-62 0-102-38.5t-40-97T41 43T145 5q61 0 101 37.5t41 96.5q0 59-40.5 97.5T143 275zm2-217q-41 0-66.5 22.5T53 140q0 36 25 59t64 23h1q27 0 47.5-10.5t32-29T234 140q-1-37-25-59.5T145 58z" fill="#626262"/><rect x="0" y="0" width="1024" height="992" fill="rgba(0, 0, 0, 0)" /></svg>