<svg xmlns="http://www.w3.org/2000/svg" xmlns:xlink="http://www.w3.org/1999/xlink" width="24" height="24" preserveAspectRatio="xMidYMid meet" viewBox="0 0 24 24" style="-ms-transform: rotate(360deg); -webkit-transform: rotate(360deg); transform: rotate(360deg);"><path d="M12 20a8 8 0 1 0 0-16a8 8 0 0 0 0 16zm0 2C6.477 22 2 17.523 2 12S6.477 2 12 2s10 4.477 10 10s-4.477 10-10 10z" fill="#626262"/><path d="M14.923 8.526H9.077C7.93 8.526 7 9.446 7 10.58v2.89c0 1.135.93 2.054 2.077 2.054h5.846c1.147 0 2.077-.92 2.077-2.054v-2.89c0-1.135-.93-2.054-2.077-2.054zm-1.404 3.64l-2.735 1.29a.11.11 0 0 1-.157-.099v-2.66a.11.11 0 0 1 .16-.097l2.734 1.37a.11.11 0 0 1-.002.196z" fill="#626262"/><rect x="0" y="0" width="24" height="24" fill="rgba(0, 0, 0, 0)" /></svg>