<svg data-v-fde0c5aa="" xmlns="http://www.w3.org/2000/svg" viewBox="0 0 300 300" class="iconLeft"><!----><defs data-v-fde0c5aa=""><!----></defs><rect data-v-fde0c5aa="" fill="transparent" x="0" y="0" width="300px" height="300px" class="logo-background-square"></rect><defs data-v-fde0c5aa=""><!----></defs><g data-v-fde0c5aa="" id="894b5612-6103-4c15-b8b6-bef9cfdb3663" fill="#000000" transform="matrix(2.3032238580472035,0,0,2.3032238580472035,117.77592347079704,130.15772589182671)"><path d="M0.94 12.29L0.94 2.69L4.91 2.69L4.91 2.69Q7.11 2.69 8.31 3.88L8.31 3.88L8.31 3.88Q9.51 5.08 9.51 7.49L9.51 7.49L9.51 7.49Q9.51 9.90 8.31 11.09L8.31 11.09L8.31 11.09Q7.11 12.29 4.91 12.29L4.91 12.29L0.94 12.29ZM2.97 10.57L4.91 10.57L4.91 10.57Q6.15 10.57 6.78 9.82L6.78 9.82L6.78 9.82Q7.42 9.07 7.42 7.70L7.42 7.70L7.42 7.28L7.42 7.28Q7.42 5.91 6.78 5.16L6.78 5.16L6.78 5.16Q6.15 4.41 4.91 4.41L4.91 4.41L2.97 4.41L2.97 10.57ZM14.38 12.46L14.38 12.46Q12.49 12.46 11.56 11.52L11.56 11.52L11.56 11.52Q10.64 10.58 10.64 8.61L10.64 8.61L10.64 8.61Q10.64 6.64 11.56 5.70L11.56 5.70L11.56 5.70Q12.49 4.76 14.38 4.76L14.38 4.76L14.38 4.76Q16.27 4.76 17.20 5.70L17.20 5.70L17.20 5.70Q18.13 6.64 18.13 8.61L18.13 8.61L18.13 8.61Q18.13 10.58 17.20 11.52L17.20 11.52L17.20 11.52Q16.27 12.46 14.38 12.46L14.38 12.46ZM14.38 10.89L14.38 10.89Q15.32 10.89 15.74 10.35L15.74 10.35L15.74 10.35Q16.16 9.81 16.16 8.72L16.16 8.72L16.16 8.50L16.16 8.50Q16.16 7.41 15.74 6.87L15.74 6.87L15.74 6.87Q15.32 6.33 14.38 6.33L14.38 6.33L14.38 6.33Q13.44 6.33 13.03 6.87L13.03 6.87L13.03 6.87Q12.61 7.41 12.61 8.50L12.61 8.50L12.61 8.72L12.61 8.72Q12.61 9.81 13.03 10.35L13.03 10.35L13.03 10.35Q13.44 10.89 14.38 10.89L14.38 10.89ZM19.66 12.29L19.66 4.93L21.29 4.93L21.43 5.89L21.53 5.89L21.53 5.89Q22.43 4.76 23.83 4.76L23.83 4.76L23.83 4.76Q24.96 4.76 25.61 5.38L25.61 5.38L25.61 5.38Q26.26 5.99 26.26 7.35L26.26 7.35L26.26 12.29L24.35 12.29L24.35 7.76L24.35 7.76Q24.35 7.07 24.02 6.76L24.02 6.76L24.02 6.76Q23.70 6.45 23.07 6.45L23.07 6.45L23.07 6.45Q22.43 6.45 22.00 6.91L22.00 6.91L22.00 6.91Q21.57 7.36 21.57 8.04L21.57 8.04L21.57 12.29L19.66 12.29ZM31.25 12.46L31.25 12.46Q29.47 12.46 28.60 11.52L28.60 11.52L28.60 11.52Q27.72 10.58 27.72 8.61L27.72 8.61L27.72 8.61Q27.72 6.64 28.60 5.70L28.60 5.70L28.60 5.70Q29.47 4.76 31.25 4.76L31.25 4.76L31.25 4.76Q32.89 4.76 33.70 5.71L33.70 5.71L33.70 5.71Q34.51 6.65 34.51 8.61L34.51 8.61L34.51 9.06L29.67 9.06L29.67 9.06Q29.69 10.04 30.06 10.51L30.06 10.51L30.06 10.51Q30.42 10.98 31.28 10.98L31.28 10.98L31.28 10.98Q31.88 10.98 32.25 10.64L32.25 10.64L32.25 10.64Q32.62 10.30 32.62 9.69L32.62 9.69L34.51 9.69L34.51 9.69Q34.51 11.07 33.61 11.77L33.61 11.77L33.61 11.77Q32.72 12.46 31.25 12.46L31.25 12.46ZM29.69 7.78L32.52 7.78L32.52 7.78Q32.52 6.26 31.25 6.26L31.25 6.26L31.25 6.26Q30.52 6.26 30.15 6.64L30.15 6.64L30.15 6.64Q29.78 7.01 29.69 7.78L29.69 7.78ZM40.45 12.46L40.45 12.46Q38.14 12.46 36.86 11.22L36.86 11.22L36.86 11.22Q35.59 9.98 35.59 7.49L35.59 7.49L35.59 7.49Q35.59 5.00 36.86 3.76L36.86 3.76L36.86 3.76Q38.14 2.52 40.45 2.52L40.45 2.52L40.45 2.52Q42.77 2.52 44.04 3.76L44.04 3.76L44.04 3.76Q45.32 5.00 45.32 7.49L45.32 7.49L45.32 7.49Q45.32 9.98 44.04 11.22L44.04 11.22L44.04 11.22Q42.77 12.46 40.45 12.46L40.45 12.46ZM40.45 10.74L40.45 10.74Q41.82 10.74 42.52 9.95L42.52 9.95L42.52 9.95Q43.23 9.16 43.23 7.70L43.23 7.70L43.23 7.28L43.23 7.28Q43.23 5.82 42.52 5.03L42.52 5.03L42.52 5.03Q41.82 4.24 40.45 4.24L40.45 4.24L40.45 4.24Q39.07 4.24 38.37 5.03L38.37 5.03L38.37 5.03Q37.67 5.82 37.67 7.28L37.67 7.28L37.67 7.70L37.67 7.70Q37.67 9.16 38.37 9.95L38.37 9.95L38.37 9.95Q39.07 10.74 40.45 10.74L40.45 10.74ZM46.89 14.71L46.89 4.93L48.52 4.93L48.65 5.89L48.75 5.89L48.75 5.89Q49.10 5.33 49.69 5.05L49.69 5.05L49.69 5.05Q50.27 4.76 50.99 4.76L50.99 4.76L50.99 4.76Q52.39 4.76 53.16 5.72L53.16 5.72L53.16 5.72Q53.93 6.68 53.93 8.62L53.93 8.62L53.93 8.62Q53.93 10.53 53.15 11.49L53.15 11.49L53.15 11.49Q52.37 12.46 51.09 12.46L51.09 12.46L51.09 12.46Q50.34 12.46 49.78 12.19L49.78 12.19L49.78 12.19Q49.21 11.93 48.89 11.44L48.89 11.44L48.80 11.44L48.80 14.71L46.89 14.71ZM50.37 10.79L50.37 10.79Q51.23 10.79 51.59 10.28L51.59 10.28L51.59 10.28Q51.95 9.77 51.95 8.74L51.95 8.74L51.95 8.48L51.95 8.48Q51.95 7.45 51.59 6.94L51.59 6.94L51.59 6.94Q51.23 6.43 50.37 6.43L50.37 6.43L50.37 6.43Q48.80 6.43 48.80 8.48L48.80 8.48L48.80 8.71L48.80 8.71Q48.80 10.79 50.37 10.79L50.37 10.79ZM58.38 12.46L58.38 12.46Q56.84 12.46 55.96 11.82L55.96 11.82L55.96 11.82Q55.09 11.19 55.09 10.12L55.09 10.12L55.10 9.95L56.97 9.95L56.97 10.05L56.97 10.05Q56.98 10.54 57.41 10.76L57.41 10.76L57.41 10.76Q57.83 10.98 58.45 10.98L58.45 10.98L58.45 10.98Q59.02 10.98 59.43 10.82L59.43 10.82L59.43 10.82Q59.84 10.67 59.84 10.32L59.84 10.32L59.84 10.32Q59.84 9.93 59.42 9.73L59.42 9.73L59.42 9.73Q59.01 9.53 58.13 9.34L58.13 9.34L58.13 9.34Q57.22 9.13 56.64 8.91L56.64 8.91L56.64 8.91Q56.07 8.69 55.65 8.23L55.65 8.23L55.65 8.23Q55.23 7.77 55.23 7L55.23 7L55.23 7Q55.23 5.92 56.13 5.34L56.13 5.34L56.13 5.34Q57.04 4.76 58.46 4.76L58.46 4.76L58.46 4.76Q59.79 4.76 60.66 5.30L60.66 5.30L60.66 5.30Q61.53 5.84 61.53 6.76L61.53 6.76L61.52 7.08L59.65 7.08L59.65 7.06L59.65 7.06Q59.64 6.65 59.30 6.45L59.30 6.45L59.30 6.45Q58.97 6.24 58.39 6.24L58.39 6.24L58.39 6.24Q57.82 6.24 57.48 6.40L57.48 6.40L57.48 6.40Q57.15 6.55 57.15 6.83L57.15 6.83L57.15 6.83Q57.15 7.18 57.53 7.35L57.53 7.35L57.53 7.35Q57.92 7.52 58.77 7.69L58.77 7.69L58.77 7.69Q59.71 7.90 60.30 8.11L60.30 8.11L60.30 8.11Q60.89 8.32 61.32 8.79L61.32 8.79L61.32 8.79Q61.75 9.27 61.75 10.08L61.75 10.08L61.75 10.08Q61.75 12.46 58.38 12.46L58.38 12.46Z"></path></g><defs data-v-fde0c5aa=""><linearGradient data-v-fde0c5aa="" gradientTransform="rotate(25)" id="1d86ac4e-55e8-4557-beea-cc9f218142ff" x1="0%" y1="0%" x2="100%" y2="0%"><stop data-v-fde0c5aa="" offset="0%" stop-color="#41E296" stop-opacity="1"></stop><stop data-v-fde0c5aa="" offset="100%" stop-color="#00C4EE" stop-opacity="1"></stop></linearGradient></defs><g data-v-fde0c5aa="" id="d03827fa-6414-4288-9fef-60607587ff0b" stroke="none" fill="url(#1d86ac4e-55e8-4557-beea-cc9f218142ff)" transform="matrix(0.7016501034519375,0,0,0.7016501034519375,37.694395148476644,114.37651864700558)"><path d="M92.559 45.057a20.865 20.865 0 0 0-14.788-6.131 20.919 20.919 0 0 0-10.021 2.553c-.113-11.463-9.433-20.717-20.922-20.719-10.65.002-19.432 7.959-20.748 18.252a20.79 20.79 0 0 0-1.867-.086v.001a20.876 20.876 0 0 0-14.796 6.13 20.85 20.85 0 0 0-6.131 14.79 20.873 20.873 0 0 0 6.13 14.807 20.868 20.868 0 0 0 14.797 6.128h53.556a20.864 20.864 0 0 0 14.791-6.126 20.892 20.892 0 0 0 6.131-14.807 20.883 20.883 0 0 0-6.132-14.792zm-2.573 27.022a17.228 17.228 0 0 1-12.225 5.063h-53.55a17.212 17.212 0 0 1-12.224-5.064 17.224 17.224 0 0 1-5.062-12.231 17.216 17.216 0 0 1 5.063-12.216 17.217 17.217 0 0 1 12.225-5.064 17.217 17.217 0 0 1 12.224 5.064l2.573-2.575a20.82 20.82 0 0 0-9.343-5.402c1.02-8.586 8.304-15.237 17.159-15.254 9.549.017 17.271 7.741 17.289 17.288 0 .836-.061 1.656-.175 2.458-.332.292-.659.594-.977.911l2.572 2.572a17.23 17.23 0 0 1 12.233-5.062 17.214 17.214 0 0 1 12.215 5.064 17.23 17.23 0 0 1 5.065 12.218c-.002 4.432-1.681 8.849-5.062 12.23z"></path></g><!----></svg>
