<svg id="Layer_1" data-name="Layer 1" xmlns="http://www.w3.org/2000/svg" viewBox="0 0 1453 288"><defs><style>.cls-1{fill:#000041;}.cls-1,.cls-2{fill-rule:evenodd;}.cls-2{fill:#2b92e1;}</style></defs><path class="cls-1" d="M1074,832.81V749.63h23.7c26.31,0,45,17.27,45,41.49,0,24.42-18.68,41.69-45,41.69ZM1048,859h45.84c46.39,0,77.4-27.93,77.4-67.83s-31-67.63-77.4-67.63H1048Zm210.07-23.49c-22.75,0-42.14-20.37-42.14-44.34,0-23.76,19.39-44.15,42.14-44.15,22.94,0,42.32,20.39,42.32,44.15C1300.39,815.09,1281,835.46,1258.07,835.46Zm0,26.15c39.36,0,70.91-31.94,70.91-70.49s-31.55-70.29-70.91-70.29c-39,0-70.73,31.75-70.73,70.29S1219.1,861.61,1258.07,861.61Zm94.91-2.82h26V771.45l66,87.34h26V723.65h-26V811l-66-87.34h-26Zm250-109.16V723.49h-100.1V859h100.1V832.81H1528.8V803h67.12V776.82H1528.8V749.63Zm86.5,98.92c-28.67,0-52.88-26.29-52.88-57.43,0-30.93,24.21-57.23,52.88-57.23s52.69,26.3,52.69,57.23C1742.12,822.26,1718.09,848.55,1689.43,848.55Zm0,13c37,0,68.06-31.35,68.06-70.38s-31.07-70.18-68.06-70.18c-36.8,0-68.25,31.16-68.25,70.18S1652.63,861.5,1689.43,861.5Zm110-66.13V736.55h35.65c21.35,0,35.84,10.88,35.84,29.41s-14.49,29.41-35.84,29.41Zm-15.18,63.42h15.18V808.32h38.32c27.07,0,48.54-16.37,48.54-42.36s-21.47-42.36-48.54-42.36h-53.5Zm171.08,2.71c30.69,0,46.64-16.58,46.64-38.53,0-24.37-18.25-33.83-43.38-40.08-22.45-5.63-35.49-10.67-35.49-25,0-12.69,11.89-24,28.2-24,13.81,0,26.85,6.65,37.83,17.73l9.34-12.29c-12.26-11.1-26.84-18.39-46.41-18.39-25.32,0-44.33,16-44.33,38.13,0,24,16.9,32.63,43.38,39.07,23,5.64,35.49,11.48,35.49,26.18,0,12.49-10.36,24.17-30.7,24.17-18.42,0-32-8.26-43.31-19.94l-9.53,12.29C1916.51,854,1933.68,861.5,1955.36,861.5Z" transform="translate(-549 -631.5)"/><path class="cls-2" d="M824.74,919.5h25.85a144,144,0,1,0-129-208.23l41,36.14a92.33,92.33,0,1,1,88,120.4H654.86A52.93,52.93,0,1,1,680.58,768l85.07,82.62h68.93l-92.32-94.36c-20.92-27.08-52.5-46-88.63-46a104.62,104.62,0,1,0,0,209.23H824.74Z" transform="translate(-549 -631.5)"/></svg>
